<svg width="179" height="29" viewBox="0 0 179 29" fill="none" xmlns="http://www.w3.org/2000/svg">
<g clip-path="url(#clip0_158_17)">
<path d="M57.9158 6.79053H54.772V22.832H57.9158V6.79053Z" fill="#2A3362"/>
<path d="M70.1005 17.143C70.1005 19.3489 68.6555 20.3551 66.7419 20.3551C64.8283 20.3551 63.5395 19.3683 63.5395 17.2591V11.5314H60.3958V17.975C60.3958 21.1872 62.4265 23.0642 65.8046 23.0642C67.933 23.0642 69.1046 22.2902 69.9052 21.4194H70.0809L70.3543 22.8513H73.2442V11.5314H70.1005V17.143Z" fill="#2A3362"/>
<path d="M100.952 20.6067C98.6483 20.6067 97.3595 19.5617 97.1448 18.0524H107.123C107.162 17.7428 107.201 17.4139 107.181 17.1042C107.162 13.0407 104.057 11.3185 100.738 11.3185C96.8909 11.3185 93.9814 13.6018 93.9814 17.2784C93.9814 20.7808 96.7542 23.0642 100.933 23.0642C104.428 23.0642 106.752 21.5355 107.22 19.1747H104.116C103.764 20.1036 102.651 20.6067 100.952 20.6067ZM100.757 13.776C102.768 13.776 103.92 14.6661 104.116 15.9045H97.2229C97.5158 14.7048 98.6873 13.776 100.757 13.776Z" fill="#2A3362"/>
<path d="M112.551 13.1568H112.356L112.063 11.5314H109.212V22.832H112.356V17.975C112.356 15.7885 113.625 14.5694 116.007 14.5694C116.437 14.5694 116.867 14.6081 117.296 14.6855V11.5314H116.867C114.738 11.5314 113.449 11.9764 112.551 13.1568Z" fill="#2A3362"/>
<path d="M132.722 19.3102H132.546L129.852 12.2473H126.61L123.974 19.2909H123.759L121.26 11.5314H118.136L121.982 22.832H125.4L128.133 15.6337H128.329L131.023 22.832H134.46L138.307 11.5314H135.182L132.722 19.3102Z" fill="#2A3362"/>
<path d="M150.823 19.5424V15.7691C150.823 12.6924 148.207 11.3185 144.946 11.3185C141.49 11.3185 139.322 12.9439 139.029 15.3821H142.173C142.407 14.3178 143.305 13.7373 144.946 13.7373C146.586 13.7373 147.679 14.3565 147.679 15.5949V15.8852L142.544 16.2722C140.181 16.4463 138.443 17.4913 138.443 19.7165C138.443 21.9999 140.435 23.0835 143.345 23.0835C145.707 23.0835 147.133 22.4256 148.011 21.4581H148.168C148.656 22.5611 149.671 22.8707 150.745 22.8707H152.073V20.568H151.78C151.136 20.5293 150.823 20.2197 150.823 19.5424ZM147.679 18.3427C147.679 20.1229 145.532 20.7228 143.696 20.7228C142.446 20.7228 141.626 20.4132 141.626 19.5424C141.626 18.7684 142.329 18.4007 143.384 18.304L147.699 17.9944L147.679 18.3427Z" fill="#2A3362"/>
<path d="M162.461 11.5314L158.79 19.7166H158.595L154.865 11.5314H151.468L156.779 22.832H160.547L165.839 11.5314H162.461Z" fill="#2A3362"/>
<path d="M175.895 19.1747C175.505 20.1036 174.392 20.6067 172.712 20.6067C170.408 20.6067 169.12 19.5617 168.905 18.0524H178.883C178.922 17.7428 178.961 17.4139 178.941 17.1042C178.922 13.0407 175.817 11.3185 172.498 11.3185C168.651 11.3185 165.761 13.6018 165.761 17.2784C165.761 20.7808 168.534 23.0642 172.712 23.0642C176.208 23.0642 178.531 21.5355 179 19.1747H175.895ZM172.498 13.776C174.509 13.776 175.661 14.6661 175.856 15.9045H168.963C169.256 14.7048 170.408 13.776 172.498 13.776Z" fill="#2A3362"/>
<path d="M49.6756 10.6993C49.6756 9.71243 50.3785 9.28673 51.2963 9.28673C51.7259 9.28673 52.1359 9.34478 52.546 9.46088L53.0732 7.19689C52.3117 6.92598 51.5111 6.79053 50.7105 6.79053C48.3868 6.79053 46.5123 8.0096 46.5123 10.5445V11.5314H43.7981V14.0082H46.5123V22.832H49.6756V14.0082H53.2294V11.5314H49.6756V10.6993Z" fill="#2A3362"/>
<path d="M80.2152 8.35791H77.2862L77.13 11.5507H74.6501V14.0276H77.0714V19.6005C77.0714 21.4968 78.0478 23.0835 80.9768 23.0835C81.7383 23.0835 82.4998 23.0061 83.2418 22.832V20.4519C82.8123 20.5486 82.3827 20.6067 81.9336 20.6067C80.3714 20.6067 80.2152 19.7166 80.2152 19.0393V14.0082H83.3395V11.5314H80.2152V8.35791Z" fill="#2A3362"/>
<path d="M90.0956 8.35791H87.1861L87.0299 11.5507H84.55V14.0276H86.9713V19.6005C86.9713 21.4968 87.9477 23.0835 90.8767 23.0835C91.6382 23.0835 92.3802 22.9868 93.1222 22.832V20.4519C92.6926 20.5486 92.263 20.6067 91.8139 20.6067C90.2518 20.6067 90.0956 19.7166 90.0956 19.0393V14.0082H93.2198V11.5314H90.0761V8.35791H90.0956Z" fill="#2A3362"/>
<path d="M0 6.36471C0 4.54578 0.527217 2.99775 1.65976 1.89478L3.61241 3.82981C1.44497 5.97771 3.33904 12.6536 9.52896 18.7877C15.7189 24.9217 22.4555 26.7987 24.623 24.6508L26.5757 26.5859C22.9047 30.2237 14.5668 27.6308 7.57631 20.7227C2.73372 15.9045 0 10.467 0 6.36471Z" fill="#009A46"/>
<path d="M12.3212 28.25C10.4857 28.25 8.92356 27.7276 7.81055 26.6053L9.7632 24.6702C11.9307 26.8181 18.6673 24.9411 24.8572 18.8071C31.0472 12.673 32.9412 5.99711 30.7738 3.84922L32.7264 1.91418C36.3974 5.55206 33.7809 13.8147 26.8099 20.7421C21.9478 25.541 16.4413 28.25 12.3212 28.25Z" fill="#FF5805"/>
<path d="M27.4349 17.975C26.2438 14.5887 23.8225 10.9702 20.6201 7.79675C13.6296 0.869312 5.29179 -1.70429 1.6208 1.91423C1.36695 2.18514 1.60127 2.8237 2.12849 3.34616C2.65571 3.86862 3.31961 4.10083 3.57345 3.84927C5.7409 1.70138 12.4776 3.57837 18.6675 9.71244C21.5965 12.615 23.7834 15.8659 24.8379 18.8652C25.7556 21.4968 25.6775 23.6254 24.6036 24.6896C24.3497 24.9412 24.5645 25.5797 25.1113 26.1216C25.658 26.6634 26.3024 26.8762 26.5562 26.6247C28.4308 24.7477 28.7432 21.671 27.4349 17.975Z" fill="#F5AFCB"/>
<path d="M32.707 1.91422C30.8325 0.05658 27.7278 -0.253026 23.9982 1.0241C20.581 2.20447 16.9296 4.60392 13.7272 7.77738C6.7367 14.7048 4.13967 22.9674 7.81066 26.6053C8.06451 26.8569 8.72841 26.644 9.25563 26.1022C9.78285 25.5604 10.0172 24.9218 9.76332 24.6703C7.59587 22.5224 9.48995 15.8465 15.6799 9.71242C18.6089 6.80986 21.8893 4.64262 24.8964 3.5977C27.552 2.68823 29.6999 2.76563 30.7739 3.8299C31.0277 4.08146 31.6721 3.86861 32.2189 3.32679C32.7656 2.78498 32.9804 2.18512 32.707 1.91422Z" fill="#FF9B00"/>
</g>
<defs>
<clipPath id="clip0_158_17">
<rect width="179" height="28" fill="white" transform="translate(0 0.25)"/>
</clipPath>
</defs>
</svg>
